<svg xmlns="http://www.w3.org/2000/svg" width="44" height="44" viewBox="0 0 44 44" fill="none">
  <g clip-path="url(#clip0_focus_muscle_arm)">
    <rect width="44" height="44" rx="22" fill="#F0F0F0" fill-opacity="0.08"/>
    <g transform="translate(10.0848 -14.6652) scale(1.000001756642452 0.9999868882451791)">
      <path id="Path 1" d="M32.8663 90.6197C32.7703 90.6444 32.5562 90.6977 32.3904 90.7399C32.2254 90.7821 31.9826 90.8959 31.8517 90.9938C31.7209 91.0909 31.5091 91.364 31.3813 91.6004C31.2544 91.8368 31.1029 92.2093 31.0458 92.4282C30.9879 92.6471 30.9419 93.0053 30.9419 93.2242C30.9427 93.463 31.0386 93.8921 31.1822 94.2989C31.356 94.7892 31.444 95.227 31.5011 95.8909C31.544 96.3947 31.6288 96.9854 31.6891 97.2043C31.7502 97.4232 31.9192 97.7639 32.0659 97.9605C32.2127 98.1571 32.5102 98.4373 32.7267 98.5814C32.9433 98.7263 33.3082 98.9141 33.5374 98.9993C33.7968 99.0956 34.1562 99.1545 34.4894 99.1553C34.794 99.1561 35.1962 99.0972 35.4214 99.0184C35.6777 98.93 35.9823 98.7247 36.2814 98.4405C36.5645 98.1722 36.8366 97.814 36.9794 97.5227C37.1619 97.151 37.215 96.9305 37.2206 96.5277C37.2253 96.1559 37.1777 95.898 37.0524 95.6123C36.9564 95.3934 36.4003 94.4262 35.8173 93.463C35.2342 92.4999 34.6742 91.5041 34.5734 91.2509C34.4243 90.8768 34.3458 90.7765 34.1522 90.72C34.0213 90.681 33.7183 90.6332 33.4779 90.6133C33.2384 90.5926 32.9631 90.5958 32.8663 90.6197Z" fill="#393939"/>
      <path id="Path 2" d="M23.3218 90.6068C23.2124 90.6251 22.999 90.6728 22.8459 90.7134C22.6031 90.7771 22.5452 90.8448 22.385 91.2491C22.2842 91.5039 21.7242 92.5005 21.1412 93.4636C20.5581 94.4268 20.0012 95.3939 19.9037 95.6128C19.7736 95.9042 19.7283 96.1494 19.7355 96.5283C19.7426 96.947 19.7942 97.1428 20.006 97.5543C20.1599 97.8536 20.4478 98.2325 20.7041 98.4737C20.9976 98.7491 21.2831 98.9314 21.5767 99.0301C21.9035 99.14 22.1724 99.1686 22.6476 99.1439C23.1513 99.1177 23.3885 99.0596 23.7978 98.8629C24.0826 98.7252 24.4848 98.4419 24.6966 98.2277C24.929 97.9929 25.136 97.6856 25.2249 97.4437C25.3114 97.208 25.4042 96.6246 25.4526 96.0108C25.516 95.2053 25.5882 94.8256 25.7754 94.2994C25.9214 93.8895 26.0158 93.466 26.0158 93.2248C26.0158 93.0059 25.9595 92.6119 25.8904 92.3492C25.8214 92.0865 25.7009 91.7466 25.6223 91.593C25.5438 91.4402 25.3954 91.2356 25.2931 91.1401C25.1908 91.0438 24.9465 90.8949 24.7497 90.8081C24.553 90.7222 24.196 90.6338 23.9565 90.6123C23.7169 90.5908 23.4305 90.5884 23.3218 90.6068Z" fill="#393939"/>
      <path id="Path 3" d="M31.3638 88.2266C31.3694 88.4981 31.3956 88.6947 31.4217 88.6644C31.4479 88.6334 31.4431 88.4113 31.4114 88.1701L31.3535 87.7323L31.3638 88.2266Z" fill="#FFFFFF" fill-opacity="0.1"/>
      <path id="Path 4" d="M22.8741 88.2894C22.8741 88.5959 22.8884 88.7033 22.9058 88.5282C22.9225 88.3531 22.9225 88.1023 22.905 87.971C22.8876 87.8397 22.8733 87.9829 22.8741 88.2894Z" fill="#FFFFFF" fill-opacity="0.1"/>
      <path id="Path 5" d="M34.0588 88.1298C34.0596 88.4801 34.0731 88.6051 34.0898 88.4084C34.1064 88.2118 34.1064 87.9245 34.0898 87.7716C34.0723 87.6188 34.0588 87.7796 34.0588 88.1298Z" fill="#FFFFFF" fill-opacity="0.1"/>
      <path id="Path 6" d="M25.5279 87.5534C25.5152 88.1337 25.531 88.6439 25.5651 88.6877C25.5985 88.7315 25.6254 88.2571 25.6246 87.633C25.6238 87.0089 25.6072 86.4987 25.5874 86.4987C25.5683 86.4987 25.5413 86.9731 25.5279 87.5534Z" fill="#FFFFFF" fill-opacity="0.1"/>
      <path id="Path 7" d="M34.0631 85.1055C34.0631 85.6309 34.0766 85.8283 34.0917 85.5433C34.1075 85.2583 34.1068 84.8293 34.0917 84.5881C34.0758 84.3469 34.0631 84.5801 34.0631 85.1055Z" fill="#FFFFFF" fill-opacity="0.1"/>
      <path id="Path 8" d="M22.8775 84.4679C22.8775 84.9932 22.891 85.1906 22.9061 84.9057C22.9219 84.6207 22.9211 84.1916 22.9061 83.9504C22.8902 83.7093 22.8775 83.9425 22.8775 84.4679Z" fill="#FFFFFF" fill-opacity="0.1"/>
      <path id="Path 9" d="M23.5083 84.0706C23.5091 84.4208 23.5226 84.5458 23.5392 84.3492C23.5559 84.1526 23.5559 83.8652 23.5392 83.7124C23.5218 83.5595 23.5083 83.7203 23.5083 84.0706Z" fill="#FFFFFF" fill-opacity="0.1"/>
      <path id="Path 10" d="M32.5515 80.3691C32.5515 80.6978 32.565 80.8403 32.5824 80.6875C32.5991 80.5347 32.5991 80.2656 32.5824 80.0905C32.565 79.9154 32.5515 80.0403 32.5515 80.3691Z" fill="#FFFFFF" fill-opacity="0.1"/>
      <path id="Path 11" d="M24.4338 80.3889C24.4338 80.7718 24.4878 81.7573 24.5544 82.578C24.621 83.3986 24.7432 84.5544 24.8257 85.1451C24.909 85.7357 25.0684 86.6312 25.1811 87.1351C25.2937 87.639 25.4183 88.158 25.4579 88.2893C25.5127 88.4708 25.5325 88.3259 25.5396 87.6923C25.5452 87.2322 25.5809 86.3908 25.6206 85.8217C25.6594 85.2525 25.7173 84.1238 25.7491 83.3143L25.807 81.8416C25.243 81.1014 24.9344 80.6174 24.7575 80.2894L24.4354 79.6924L24.4338 80.3889Z" fill="#393939"/>
      <path id="Path 12" d="M32.9468 80.17C32.9468 80.4765 32.9611 80.5839 32.9786 80.4088C32.9952 80.2337 32.9952 79.983 32.9778 79.8516C32.9603 79.7203 32.946 79.8636 32.9468 80.17Z" fill="#FFFFFF" fill-opacity="0.1"/>
      <path id="Path 13" d="M32.1687 80.3052C31.9569 80.6682 31.6404 81.1625 31.4643 81.4037L31.1438 81.8415C31.3223 85.2962 31.3739 86.8078 31.3739 87.4295C31.3739 88.0512 31.3969 88.5351 31.4246 88.5041C31.4524 88.4738 31.5658 88.0543 31.6769 87.5728C31.788 87.0912 31.9149 86.5005 31.9601 86.2593C32.0053 86.0182 32.095 85.4275 32.1608 84.9459C32.2258 84.4643 32.3187 83.6763 32.3663 83.1947C32.4138 82.7131 32.4797 81.7277 32.5122 81.0057C32.5455 80.2829 32.5677 79.6811 32.563 79.6684C32.5574 79.6549 32.3797 79.9414 32.1687 80.3052Z" fill="#393939"/>
      <path id="Path 14" d="M24.3487 80.0904C24.3487 80.3969 24.3646 80.6301 24.3844 80.6078C24.4035 80.5855 24.4312 80.365 24.4463 80.1167C24.4606 79.8683 24.4447 79.6351 24.4106 79.5993C24.3765 79.5627 24.3487 79.784 24.3487 80.0904Z" fill="#FFFFFF" fill-opacity="0.1"/>
      <path id="Path 15" d="M23.9835 80.0895C23.9843 80.4398 23.9978 80.5647 24.0145 80.3681C24.0311 80.1715 24.0311 79.8842 24.0145 79.7313C23.997 79.5785 23.9835 79.7393 23.9835 80.0895Z" fill="#FFFFFF" fill-opacity="0.1"/>
      <path id="Path 16" d="M30.9997 72.0174C30.9687 72.0795 30.8553 72.5961 30.7474 73.1653C30.6387 73.7344 30.4904 74.7199 30.4174 75.3543C30.3254 76.1559 30.2984 76.8253 30.3294 77.5433C30.3563 78.1881 30.4515 78.9531 30.58 79.5731C30.6935 80.1208 30.8291 80.7035 30.8823 80.8683C30.9346 81.0338 31.0044 81.1683 31.037 81.1668C31.0695 81.166 31.2757 80.8698 31.4947 80.5085C31.7136 80.1471 32.0412 79.5477 32.2221 79.1751C32.541 78.52 32.5513 78.4755 32.5354 77.7821C32.5259 77.3881 32.4648 76.725 32.399 76.3095C32.3332 75.894 32.207 75.2667 32.1182 74.9165C32.0285 74.5663 31.7755 73.7782 31.5558 73.1653C31.3352 72.5524 31.1329 72.0182 31.1052 71.9776C31.0774 71.9378 31.0298 71.9554 30.9997 72.0174Z" fill="#393939"/>
      <path id="Path 17" d="M25.6728 72.4285C25.5585 72.7023 25.357 73.2484 25.2246 73.6424C25.0913 74.0364 24.9144 74.6279 24.8303 74.9558C24.7462 75.2846 24.6233 75.8935 24.5574 76.309C24.4908 76.7245 24.4297 77.3876 24.4218 77.7816C24.4067 78.4925 24.4099 78.5044 24.8097 79.3339C25.031 79.7939 25.3586 80.3933 25.5371 80.6672C25.7148 80.941 25.8965 81.1647 25.9401 81.1647C25.9837 81.1647 26.0535 81.0301 26.0956 80.8662C26.1376 80.7022 26.2415 80.2628 26.3272 79.8911C26.4129 79.5193 26.5263 78.9096 26.5795 78.5378C26.6406 78.1056 26.6604 77.3582 26.6342 76.4682C26.6056 75.4836 26.5343 74.7369 26.3907 73.921C26.2788 73.2866 26.1551 72.5789 26.1146 72.3489C26.075 72.1188 26.0059 71.931 25.9607 71.931C25.9163 71.931 25.7862 72.1547 25.6728 72.4285Z" fill="#393939"/>
      <path id="Path 18" d="M19.7104 73.0654C19.4018 74.7291 19.397 74.7872 19.397 76.6276C19.397 78.4672 19.401 78.5149 19.6493 79.4932C19.7873 80.0409 20.1022 81.0613 20.3482 81.7618C20.5941 82.4623 20.9217 83.3936 21.0764 83.8314C21.2303 84.2693 21.5087 85.1289 21.6951 85.7419C21.8807 86.3548 22.1179 87.197 22.2219 87.6125L22.4114 88.3687C22.5098 87.1349 22.5209 85.7196 22.4979 84.4285C22.4757 83.1373 22.4194 81.722 22.3726 81.2842C22.3258 80.8464 22.2147 79.9509 22.1267 79.2942C22.0378 78.6375 21.876 77.6162 21.7673 77.0256C21.6594 76.4349 21.4825 75.5928 21.3754 75.155C21.2676 74.7172 21.0518 73.9649 20.8955 73.4834C20.7384 73.0018 20.4981 72.3291 20.3608 71.9884C20.2236 71.6478 20.0911 71.37 20.0673 71.3715C20.0435 71.3731 19.8825 72.1349 19.7104 73.0654Z" fill="#393939"/>
      <path id="Path 19" d="M36.8717 71.3345C36.8448 71.3783 36.6631 71.8439 36.468 72.3693C36.2728 72.8947 35.9801 73.7727 35.8175 74.3195C35.6549 74.8672 35.4034 75.9052 35.2582 76.6279C35.1123 77.3507 34.9354 78.3895 34.8648 78.9364C34.7934 79.484 34.6839 80.4512 34.6204 81.0856C34.5578 81.72 34.4832 83.1528 34.4562 84.2696C34.4293 85.3864 34.4356 86.7293 34.4705 87.2546L34.5348 88.2099C34.7037 87.5929 34.9124 86.8495 35.1067 86.1601C35.3011 85.4708 35.8032 84.0022 36.2213 82.8965C36.6401 81.7909 37.0883 80.475 37.2176 79.9712C37.3469 79.4673 37.5032 78.6976 37.5658 78.2598C37.6277 77.822 37.6793 77.061 37.6801 76.5682C37.6809 76.0755 37.6261 75.2516 37.5571 74.7374C37.4889 74.2232 37.3183 73.229 37.1771 72.5285C37.0367 71.828 36.8995 71.2907 36.8717 71.3345Z" fill="#393939"/>
      <path id="Path 20" d="M36.482 67.5763C36.2868 67.8231 36.2702 67.9162 36.1917 69.1882C36.1314 70.1602 36.06 70.6943 35.9362 71.0955C35.841 71.4019 35.5015 72.2075 35.181 72.8865C34.8613 73.5655 34.5298 74.3352 34.4441 74.5979C34.3592 74.8606 34.2323 75.4162 34.1625 75.8317C34.0927 76.2472 33.9999 76.9636 33.9562 77.4237C33.9118 77.8838 33.8023 79.1192 33.7135 80.1699C33.6238 81.2207 33.5168 82.8143 33.4755 83.7122C33.4343 84.6101 33.3081 86.0779 33.1947 86.9758C33.0813 87.8737 32.9202 88.9483 32.8369 89.3638C32.7528 89.7793 32.6838 90.1375 32.6838 90.1598C32.683 90.1821 33.0249 90.1996 33.443 90.1996H34.2029C34.1339 89.7061 34.0911 88.5957 34.0633 87.4136C34.034 86.1623 34.0498 84.5074 34.1014 83.4535C34.1506 82.4577 34.245 81.114 34.3116 80.4684C34.379 79.8229 34.506 78.7929 34.5948 78.1799C34.6829 77.567 34.8645 76.564 34.997 75.9511C35.1295 75.3382 35.3825 74.3527 35.5586 73.7621C35.7355 73.1715 36.0203 72.3118 36.1917 71.8517C36.363 71.3924 36.5542 70.9084 36.6168 70.7771C36.7057 70.5892 36.7255 70.1928 36.7097 68.9263L36.689 67.3144L36.482 67.5763Z" fill="#393939"/>
      <path id="Path 21" d="M20.2281 68.9063C20.2273 69.8034 20.259 70.5739 20.2987 70.6177C20.3383 70.6615 20.5684 71.2346 20.8095 71.8913C21.0507 72.548 21.3593 73.4793 21.4941 73.9609C21.6298 74.4425 21.8439 75.338 21.9709 75.9509C22.0986 76.5639 22.2921 77.6926 22.4008 78.4584C22.5103 79.2249 22.6618 80.4786 22.738 81.2444C22.8435 82.3047 22.8776 83.4071 22.8815 85.8612C22.8839 87.6347 22.8601 89.3358 22.8284 89.6423L22.7697 90.1995H24.2864C24.2111 89.8293 24.1032 89.1846 23.9985 88.5279C23.893 87.8712 23.751 86.8499 23.6819 86.2592C23.6137 85.6686 23.5225 84.5216 23.4789 83.712C23.4352 82.9025 23.348 81.6122 23.2853 80.8464C23.2226 80.0798 23.1314 78.9161 23.0822 78.2594C23.0338 77.6027 22.9418 76.7072 22.8784 76.2693C22.8157 75.8315 22.6904 75.2043 22.6015 74.8763C22.5127 74.5476 22.1771 73.7245 21.8566 73.0455C21.5354 72.3665 21.1768 71.4893 21.0602 71.0953C20.9023 70.5636 20.8294 70.082 20.7746 69.2247C20.735 68.5895 20.6842 67.9988 20.6628 67.9113C20.6414 67.8237 20.5351 67.6446 20.4264 67.5133L20.2296 67.2745L20.2281 68.9063Z" fill="#393939"/>
      <path id="Path 22" d="M34.2128 66.379C34.0058 66.7404 33.6925 67.1798 33.5171 67.3557C33.3418 67.5324 33.0198 67.7616 32.8016 67.8667C32.516 68.0036 32.2606 68.0586 31.8894 68.0625C31.484 68.0665 31.2762 68.0219 30.9176 67.85L30.4615 67.6327C30.4615 67.9105 30.5154 68.2958 30.5813 68.6675C30.6471 69.0392 30.778 69.6307 30.8716 69.9809C30.966 70.3312 31.2555 71.155 31.5149 71.8117C31.7743 72.4684 32.1075 73.3639 32.2559 73.8017C32.4042 74.2396 32.5946 74.9201 32.6795 75.3142C32.7643 75.7082 32.8762 76.4604 32.9278 76.9858C32.988 77.5995 33.0047 78.5945 32.9746 79.7718C32.9484 80.7788 32.8722 82.1757 32.804 82.8762C32.7366 83.5767 32.5898 84.7047 32.4788 85.3837C32.3677 86.0626 32.1853 86.9932 32.0734 87.4533C31.9615 87.9134 31.7188 88.7547 31.534 89.3239C31.3491 89.893 31.1754 90.4932 31.1469 90.6572C31.108 90.8865 31.1191 90.9422 31.1968 90.896C31.2524 90.8634 31.457 90.7304 31.653 90.6007C31.8481 90.4709 32.0163 90.3635 32.0258 90.3619C32.0353 90.3603 32.1154 89.983 32.2043 89.5229C32.2923 89.0628 32.47 88.0065 32.5993 87.1747C32.7278 86.3428 32.8881 85.1966 32.9555 84.6274C33.0221 84.0583 33.1126 83.2169 33.157 82.7568C33.2006 82.2967 33.3085 80.8639 33.3966 79.5728C33.4854 78.2817 33.61 76.813 33.675 76.3092C33.7401 75.8053 33.8662 75.1247 33.9558 74.7968C34.0463 74.468 34.3675 73.6537 34.6706 72.9858C34.9736 72.318 35.3123 71.4583 35.4234 71.0754C35.5606 70.6042 35.6542 70.0056 35.7137 69.2247C35.7788 68.3594 35.778 67.9511 35.7089 67.5929C35.6534 67.3055 35.486 66.8932 35.2885 66.5581C35.1084 66.2516 34.903 65.9372 34.8332 65.8592C34.7626 65.7812 34.6793 65.7183 34.6476 65.7199C34.6158 65.7215 34.4207 66.0176 34.2128 66.379Z" fill="#393939"/>
      <path id="Path 23" d="M21.9937 66.0572C21.8636 66.2451 21.6415 66.6319 21.5003 66.9169C21.2893 67.3404 21.2354 67.5569 21.2028 68.1109C21.1798 68.5025 21.214 69.1728 21.283 69.7029C21.3488 70.206 21.5098 70.9407 21.6415 71.3347C21.7724 71.7287 22.0976 72.5439 22.3634 73.1456C22.6291 73.7474 22.9179 74.4996 23.0051 74.8173C23.0924 75.1349 23.2162 75.7526 23.2796 76.1904C23.3439 76.6282 23.4518 77.8461 23.52 78.8968C23.5882 79.9475 23.6985 81.4703 23.7643 82.2798C23.8309 83.0894 23.9729 84.433 24.0808 85.2648C24.1879 86.0967 24.41 87.5709 24.5726 88.5404L24.8693 90.3036C25.5452 90.7597 25.7689 90.9069 25.8014 90.9245C25.8339 90.942 25.8387 90.8218 25.8109 90.6578C25.784 90.4938 25.6086 89.8936 25.4214 89.3245C25.235 88.7553 24.9915 87.9315 24.8812 87.4937C24.771 87.0559 24.625 86.3928 24.5576 86.0211C24.4894 85.6493 24.3632 84.7355 24.2775 83.9912C24.1919 83.247 24.08 82.0108 24.0293 81.245C23.9769 80.4554 23.9563 79.1451 23.9809 78.2202C24.007 77.2698 24.0776 76.3058 24.1506 75.9118C24.2188 75.54 24.3521 74.9486 24.4457 74.5984C24.5393 74.2481 24.8939 73.2627 25.2334 72.4093C25.573 71.5552 25.9394 70.5522 26.0473 70.1805C26.1552 69.8088 26.2996 69.1815 26.3694 68.7875C26.4384 68.3935 26.4955 67.9724 26.4955 67.8522V67.6333C26.0346 67.8793 25.7038 67.9899 25.4643 68.0377C25.1414 68.1021 24.9352 68.1013 24.671 68.0329C24.4743 67.9827 24.1712 67.857 23.9967 67.7543C23.8222 67.6516 23.5549 67.4367 23.4018 67.2767C23.2487 67.1167 22.9583 66.7107 22.7553 66.374C22.5522 66.0381 22.3507 65.7515 22.3087 65.7388C22.2658 65.7253 22.1246 65.8685 21.9937 66.0572Z" fill="#393939"/>
      <path id="Path 24" d="M31.8371 57.2523C31.3929 58.1677 30.9051 59.2566 30.752 59.6729C30.5989 60.0885 30.4005 60.6974 30.3117 61.0261C30.2228 61.3541 30.0943 61.9455 30.0277 62.3396C29.9603 62.7336 29.9055 63.4587 29.9063 63.9515C29.9071 64.4649 29.9619 65.1097 30.0356 65.4639C30.1054 65.803 30.2252 66.2241 30.3014 66.3992C30.3775 66.5743 30.5425 66.8402 30.6695 66.9898C30.7956 67.1395 31.0415 67.3273 31.216 67.4061C31.3905 67.485 31.7118 67.5502 31.93 67.5502C32.1481 67.5502 32.4694 67.4842 32.6439 67.4046C32.8184 67.3242 33.1127 67.0925 33.2983 66.8887C33.484 66.685 33.7069 66.3753 33.7941 66.2002C33.8814 66.0251 33.9909 65.7114 34.0369 65.5037C34.113 65.1622 34.09 65.0086 33.8005 63.9316C33.6244 63.2749 33.4102 62.3969 33.3261 61.9814C33.2412 61.565 33.1 60.7412 33.0112 60.1505C32.9231 59.5599 32.8121 58.5744 32.7645 57.9615C32.7177 57.3486 32.6709 56.5637 32.6614 56.2175L32.6439 55.5878L31.8371 57.2523Z" fill="#FFFFFF" fill-opacity="0.1"/>
      <path id="Path 25" d="M24.2792 56.7077C24.2744 57.3095 24.2165 58.3037 24.1491 58.9166C24.0817 59.5295 23.9381 60.515 23.8294 61.1056C23.7207 61.6963 23.528 62.5918 23.4018 63.0956C23.2749 63.5995 23.0996 64.2435 23.0116 64.5285C22.9029 64.8795 22.8664 65.1485 22.8997 65.3643C22.9275 65.5394 23.0361 65.8801 23.1424 66.1205C23.2487 66.3609 23.4486 66.696 23.5867 66.8647C23.7287 67.0375 24.0285 67.2604 24.2744 67.375C24.6251 67.5398 24.7988 67.5732 25.1589 67.5461C25.4961 67.5214 25.6928 67.453 25.9522 67.2707C26.1418 67.137 26.394 66.8679 26.513 66.6737C26.632 66.4787 26.7923 66.087 26.87 65.8021C26.9811 65.3945 27.0112 64.979 27.0104 63.8519C27.0104 62.4875 26.9977 62.3697 26.7455 61.3842C26.5995 60.8151 26.3187 59.9379 26.1212 59.434C25.9236 58.9301 25.4453 57.8651 25.0574 57.0659C24.6703 56.2667 24.3387 55.6132 24.3204 55.6132C24.3014 55.6132 24.2832 56.1059 24.2792 56.7077Z" fill="#FFFFFF" fill-opacity="0.1"/>
      <path id="Path 26" d="M38.2929 54.8965C38.2691 54.9626 38.208 55.2483 38.1572 55.5333C38.1065 55.8183 37.905 56.6955 37.709 57.4835C37.5131 58.2716 37.1609 59.5794 36.9261 60.3889C36.6913 61.1985 36.2621 62.5421 35.9726 63.374C35.6822 64.2058 35.4062 65.0121 35.3578 65.165C35.2785 65.4213 35.2991 65.4985 35.6156 66.1202C35.8052 66.4919 36.0027 66.9226 36.0551 67.0754L36.1503 67.354C36.7952 66.3669 37.2085 65.6147 37.4853 65.0456C37.7622 64.4764 38.0946 63.6884 38.2231 63.2944C38.3516 62.9003 38.5301 62.2381 38.6189 61.8217C38.7086 61.4054 38.8236 60.6715 38.8751 60.1899C38.9315 59.6701 38.9481 58.9426 38.918 58.3989C38.8894 57.895 38.8117 57.1611 38.7458 56.7671C38.6792 56.3731 38.5602 55.7641 38.4801 55.4139C38.4008 55.0636 38.3159 54.8304 38.2929 54.8965Z" fill="#FFFFFF" fill-opacity="0.1"/>
      <path id="Path 27" d="M18.6293 54.8637C18.6023 54.9043 18.5064 55.3126 18.4151 55.7727C18.3231 56.232 18.2105 56.8768 18.1645 57.2055C18.1177 57.5335 18.0788 58.3756 18.0788 59.0761C18.0772 59.857 18.1248 60.6419 18.2002 61.106C18.2684 61.5215 18.4143 62.2021 18.5254 62.6184C18.6365 63.0339 18.8213 63.6253 18.9355 63.9318C19.0497 64.2382 19.2949 64.7939 19.4805 65.1656C19.6653 65.5373 20.0389 66.1821 20.3102 66.5984L20.8037 67.3546C20.948 66.9232 21.1582 66.4838 21.3637 66.1009L21.7373 65.4044C21.1329 63.7081 20.7783 62.6598 20.5601 61.9816C20.342 61.3026 20.0739 60.4429 19.9644 60.0711C19.8557 59.6994 19.651 58.9464 19.5098 58.3995C19.3686 57.8519 19.1235 56.8163 18.9649 56.0975C18.8062 55.3787 18.6555 54.8239 18.6293 54.8637Z" fill="#FFFFFF" fill-opacity="0.1"/>
      <path id="Path 28" d="M28.0312 52.9466C28.032 53.2968 28.0454 53.4226 28.0621 53.2252C28.0788 53.0278 28.0788 52.7412 28.0621 52.5884C28.0447 52.4356 28.0312 52.5964 28.0312 52.9466Z" fill="#FFFFFF" fill-opacity="0.1"/>
      <path id="Path 29" d="M5.74876 52.4494L5.19586 53.0265C6.08828 52.1629 6.34689 51.9034 6.34689 51.8922C6.34609 51.8811 6.33658 51.8723 6.32388 51.8723C6.31198 51.8723 6.05338 52.1318 5.74876 52.4494Z" fill="#FFFFFF" fill-opacity="0.1"/>
      <path id="Path 30" d="M28.9069 51.6729C28.9069 52.1983 28.9204 52.3957 28.9354 52.1107C28.9513 51.8257 28.9505 51.3959 28.9354 51.1555C28.9196 50.9151 28.9069 51.1475 28.9069 51.6729Z" fill="#FFFFFF" fill-opacity="0.1"/>
      <path id="Path 31" d="M29.9739 49.187C29.6471 49.4601 29.2687 49.7729 29.133 49.8819L28.8871 50.0809C28.9886 53.659 29.0624 55.3959 29.1179 56.25C29.1727 57.1041 29.2385 57.8277 29.2647 57.8587C29.2901 57.8898 29.3948 57.0484 29.4971 55.9881C29.5995 54.9278 29.7668 53.5237 29.87 52.867C29.9723 52.2103 30.1817 51.0139 30.3348 50.2083C30.4879 49.4027 30.6029 48.7325 30.5902 48.7174C30.5776 48.7031 30.3007 48.9148 29.9739 49.187Z" fill="#FFFFFF" fill-opacity="0.1"/>
      <path id="Path 32" d="M26.3862 48.7787C26.3989 48.8821 26.5353 49.7012 26.69 50.5983C26.8439 51.4954 27.0755 53.0182 27.2041 53.9814C27.3326 54.9445 27.4825 56.2699 27.5364 56.9266C27.5999 57.6923 27.6554 58.049 27.6927 57.9216C27.7236 57.8125 27.7903 57.1495 27.8395 56.449C27.8886 55.7485 27.9624 54.4056 28.0029 53.464C28.0433 52.5223 28.0774 51.3498 28.079 50.857L28.0814 49.9615C27.1287 49.2284 26.7424 48.9203 26.6075 48.8033L26.364 48.5908L26.3862 48.7787Z" fill="#FFFFFF" fill-opacity="0.1"/>
      <path id="Path 33" d="M21.4234 47.9115C21.3251 48.2291 20.9475 49.2408 20.5849 50.1602C20.2224 51.0796 19.7084 52.3063 19.4426 52.8865C19.1769 53.4668 18.9595 54.0041 18.9587 54.0806C18.9587 54.157 19.0674 54.7213 19.1999 55.3343C19.3324 55.9472 19.5973 57.0576 19.7893 57.8019C19.9805 58.5462 20.3216 59.7457 20.5477 60.4685C20.7737 61.1913 21.2227 62.5071 21.5456 63.3938C21.8772 64.3053 22.1754 65.0065 22.2318 65.0081C22.2936 65.0089 22.4721 64.4891 22.7038 63.635C22.9092 62.878 23.1647 61.8297 23.2725 61.3043C23.3796 60.779 23.5327 59.8834 23.6128 59.3143C23.7247 58.5231 23.7588 57.7915 23.758 56.2099V54.1403C23.2249 52.7831 22.9156 51.9234 22.7268 51.3542C22.538 50.7851 22.2564 49.8004 22.1017 49.1652C21.947 48.53 21.8026 47.859 21.7804 47.6727C21.759 47.4864 21.7098 47.3344 21.6717 47.3344C21.6336 47.3344 21.5218 47.5939 21.4234 47.9115Z" fill="#FFFFFF" fill-opacity="0.1"/>
      <path id="Path 34" d="M35.0379 48.315C34.9141 48.9358 34.6579 49.981 34.4683 50.6377C34.2787 51.2944 33.9638 52.2616 33.7679 52.7869C33.5727 53.3123 33.3649 53.9929 33.3062 54.2993C33.2403 54.6464 33.2015 55.4114 33.2039 56.3292C33.2062 57.1387 33.253 58.1958 33.3078 58.6774C33.3633 59.159 33.4926 60.0545 33.5957 60.6674C33.6981 61.2803 33.9249 62.3549 34.0995 63.0554C34.274 63.7559 34.4731 64.4811 34.5421 64.6673C34.6127 64.8592 34.719 65.0056 34.7864 65.0056C34.8697 65.0056 35.0799 64.5034 35.4916 63.3141C35.8145 62.3836 36.2627 61.0312 36.4888 60.3092C36.7141 59.5864 37.0552 58.3685 37.2463 57.6028C37.4367 56.8362 37.685 55.7974 37.7969 55.2943C37.9095 54.7905 38.0007 54.3073 37.9999 54.2197C37.9999 54.1322 37.6937 53.3441 37.3201 52.4685C36.9473 51.5929 36.4158 50.2676 36.1405 49.5233C35.8653 48.779 35.5773 47.9727 35.5004 47.7323C35.4242 47.4911 35.3393 47.2698 35.3124 47.2403C35.2846 47.2101 35.1616 47.6941 35.0379 48.315Z" fill="#FFFFFF" fill-opacity="0.1"/>
      <path id="Path 35" d="M51.0483 46.1412C50.8738 46.1746 50.5375 46.2876 50.3011 46.3911C50.0298 46.5097 49.7307 46.7326 49.488 46.9969C49.1786 47.3344 49.0866 47.5032 49.0104 47.8725C48.9382 48.2227 48.9382 48.4512 49.0088 48.8476C49.0596 49.1326 49.2206 49.6158 49.3658 49.9222C49.5118 50.2287 49.7878 50.7119 49.979 50.9968C50.171 51.2818 50.6327 51.8326 51.0055 52.2211C51.3783 52.6095 51.9685 53.1508 52.3176 53.4246C52.6666 53.6977 53.095 53.993 53.2695 54.0814C53.444 54.1697 53.7835 54.2843 54.0231 54.3353C54.342 54.4037 54.5823 54.4061 54.9155 54.3448C55.1662 54.2987 55.47 54.2119 55.5898 54.1514C55.7096 54.0917 55.9063 53.9309 56.0261 53.7932C56.1863 53.6101 56.2442 53.4597 56.2442 53.2256C56.2442 52.9741 56.08 52.6016 55.4637 51.4545C55.0353 50.6553 54.58 49.7606 54.4522 49.4669L54.2214 48.9312C53.4837 48.9264 53.0466 48.8715 52.7737 48.807C52.5008 48.7417 52.1264 48.6112 51.9408 48.5173C51.7551 48.4233 51.5045 48.2705 51.3839 48.179C51.2625 48.0866 51.1657 47.9935 51.1681 47.972C51.1705 47.9505 51.3767 47.9959 51.6258 48.0739C51.8757 48.1519 52.3834 48.2657 52.7539 48.3278C53.1243 48.3899 53.732 48.487 54.1024 48.5435C54.4729 48.6 55.1352 48.647 55.5739 48.647C56.1998 48.6486 56.4164 48.6184 56.5853 48.5093C56.7027 48.4329 56.8368 48.2713 56.8836 48.1511C56.9479 47.9823 56.9423 47.9139 56.8574 47.8526C56.7979 47.8088 56.3402 47.6536 55.842 47.5087C55.3431 47.3631 54.453 47.0144 53.8644 46.735C53.1418 46.3911 52.6261 46.1993 52.2779 46.1444C51.9939 46.0998 51.6726 46.0664 51.564 46.0711C51.4545 46.0751 51.2229 46.107 51.0483 46.1412Z" fill="#393939"/>
      <path id="Path 36" d="M4.60104 46.1464C4.35909 46.1885 3.68799 46.4504 3.09383 46.7354C2.50443 47.0172 1.61439 47.3658 1.11542 47.5107C0.617249 47.6548 0.153188 47.814 0.0841735 47.8649C-0.0141916 47.9382 -0.0229178 48.0034 0.0405436 48.1833C0.0873463 48.3147 0.236481 48.4691 0.397514 48.5527C0.622008 48.6681 0.817153 48.6896 1.42797 48.6649C1.84205 48.6482 2.43145 48.5941 2.73686 48.5447C3.04227 48.4954 3.59517 48.4182 3.96642 48.3728C4.33767 48.3274 4.92628 48.2032 5.27531 48.0966L5.90993 47.9023C5.4181 48.3314 5.07938 48.5288 4.83902 48.618C4.59866 48.7071 4.22424 48.813 4.00609 48.8544C3.78794 48.895 3.41352 48.9284 3.17316 48.9284H2.73686C2.38544 49.7602 1.94359 50.6279 1.52792 51.3944C1.00278 52.3616 0.758451 52.8965 0.7291 53.1456C0.698163 53.4012 0.724341 53.5667 0.81874 53.7227C0.895687 53.8485 1.14557 54.0324 1.40814 54.1558C1.77542 54.3277 1.98008 54.3691 2.45922 54.3691C2.94152 54.3691 3.14381 54.3277 3.53013 54.1486C3.7919 54.0276 4.29166 53.7036 4.6407 53.429C4.98974 53.1536 5.59659 52.5924 5.98925 52.1809C6.38192 51.7693 6.88089 51.1644 7.09745 50.8364C7.31401 50.5085 7.59562 49.9895 7.72334 49.683C7.85026 49.3765 7.97322 48.9109 7.99622 48.6482C8.02002 48.364 7.99384 48.009 7.93038 47.7726C7.84947 47.4709 7.71699 47.2671 7.38223 46.9304C7.07365 46.6192 6.80394 46.4337 6.48505 46.3135C6.23437 46.2188 5.80601 46.1249 5.53313 46.1058C5.26024 46.0866 4.8414 46.105 4.60104 46.1464Z" fill="#393939"/>
      <path id="Path 37" d="M21.3366 43.1754C21.3374 43.2303 21.4651 43.8926 21.6198 44.648C21.7745 45.4034 22.076 46.7375 22.2901 47.6131C22.5043 48.4887 22.8074 49.6533 22.9644 50.2001C23.1215 50.7478 23.4118 51.6608 23.6101 52.2299C23.8085 52.7991 24.1781 53.7487 24.432 54.3394C24.685 54.93 25.1864 56.0412 25.5449 56.807C25.9035 57.5735 26.3295 58.5399 26.4905 58.9562C26.6515 59.3725 26.8824 60.0706 27.0022 60.5084C27.1227 60.9462 27.2362 61.3403 27.2544 61.384C27.2727 61.4278 27.2727 60.7114 27.2536 59.792C27.2322 58.7142 27.1473 57.4987 27.0164 56.3692C26.9038 55.406 26.6864 53.8116 26.5325 52.827C26.3779 51.8415 26.1589 50.4087 26.0455 49.6429L25.8384 48.2499C24.4677 46.8306 23.841 46.15 23.561 45.8221C23.2817 45.4933 22.6987 44.7769 22.2656 44.2301C21.8332 43.6824 21.4469 43.1992 21.4072 43.1555C21.3602 43.1035 21.3366 43.1101 21.3366 43.1754Z" fill="#FFFFFF" fill-opacity="0.1"/>
      <path id="Path 38" d="M35.0476 43.7788C34.7192 44.2238 34.0624 45.054 33.5872 45.6232C33.112 46.1923 32.3632 47.0337 31.9229 47.4938L31.1225 48.3296C30.6632 51.044 30.4443 52.3694 30.3396 53.0261C30.2348 53.6828 30.0564 55.0798 29.9429 56.1305C29.8295 57.1812 29.72 58.5599 29.701 59.1951C29.6811 59.8295 29.6573 60.5905 29.647 60.8858C29.6367 61.1812 29.6558 61.4231 29.6883 61.4231C29.7208 61.4239 29.7478 61.3611 29.747 61.2846C29.747 61.2082 29.8572 60.7871 29.9929 60.3493C30.1285 59.9115 30.3641 59.2485 30.5164 58.8767C30.6688 58.505 31.1162 57.5195 31.5104 56.6877C31.9047 55.8559 32.4235 54.6913 32.6638 54.1007C32.9042 53.51 33.2048 52.7212 33.331 52.3495C33.4571 51.9777 33.753 50.974 33.9894 50.1206C34.225 49.2665 34.5811 47.8695 34.7803 47.0162C34.9794 46.1621 35.2641 44.9147 35.4133 44.2445C35.5624 43.5735 35.6759 43.0123 35.6648 42.9972C35.6536 42.982 35.376 43.3339 35.0476 43.7788Z" fill="#FFFFFF" fill-opacity="0.1"/>
      <path id="Path 39" d="M36.5481 41.8458C36.4735 42.0186 36.322 42.5813 36.2118 43.0956C36.1023 43.6098 35.8929 44.5324 35.7469 45.1453L35.4819 46.2597C36.0055 47.7403 36.3617 48.6899 36.6116 49.3243C36.8614 49.9595 37.3691 51.1949 37.7396 52.0706C38.11 52.9462 38.5336 54.0208 38.6804 54.4586C38.8279 54.8964 38.9485 55.335 38.9493 55.4337C38.9501 55.5324 38.9866 55.6128 39.0302 55.6128C39.0747 55.6128 39.0937 55.4982 39.0731 55.3541C39.0532 55.2116 39.0183 54.4331 38.9961 53.6228C38.9739 52.8132 38.9009 51.7649 38.8343 51.2944C38.7677 50.824 38.6241 50.0176 38.5154 49.5034C38.4059 48.9892 38.1196 47.8517 37.8776 46.9761C37.6357 46.1005 37.2787 44.5244 37.0843 43.4737C36.89 42.4229 36.7202 41.5561 36.7075 41.5473C36.6941 41.5386 36.6227 41.6723 36.5481 41.8458Z" fill="#FFFFFF" fill-opacity="0.1"/>
      <path id="Path 40" d="M19.9234 43.0964C19.7774 44.0046 19.5402 45.2138 19.3951 45.7829C19.2499 46.352 18.9699 47.445 18.7731 48.2107C18.5772 48.9773 18.3424 50.1052 18.252 50.7181C18.1615 51.3311 18.0521 52.3516 18.0092 52.9868C17.9656 53.622 17.9323 54.4809 17.9354 54.8972L17.941 55.6534C18.225 54.543 18.4154 53.9515 18.5463 53.6236C18.6779 53.2948 19.0079 52.5251 19.2792 51.9122C19.5505 51.2992 20.0677 50.0455 20.4279 49.1261C20.788 48.2067 21.1632 47.2038 21.2616 46.8973L21.4401 46.3401C21.122 44.7974 20.9078 43.8128 20.7579 43.1561C20.6088 42.4994 20.4287 41.8459 20.3573 41.7034C20.2867 41.5609 20.2193 41.4447 20.2082 41.4447C20.197 41.4447 20.0685 42.1881 19.9234 43.0964Z" fill="#FFFFFF" fill-opacity="0.1"/>
      <path id="Path 41" d="M20.1026 38.3399C20.1026 38.9752 20.1145 39.2434 20.1295 38.937C20.1446 38.6305 20.1446 38.1107 20.1295 37.7827C20.1145 37.454 20.1026 37.7047 20.1026 38.3399Z" fill="#FFFFFF" fill-opacity="0.1"/>
      <path id="Path 42" d="M29.133 37.1028C28.9672 37.1816 28.83 37.3321 28.7499 37.5239C28.6412 37.7842 28.6317 38.1408 28.6777 40.2901C28.7063 41.6472 28.7539 44.2319 28.7824 46.034C28.8118 47.8362 28.8649 49.3407 28.9014 49.3773C28.9371 49.4139 29.3314 49.0676 29.7772 48.6083C30.223 48.1482 30.814 47.4318 31.09 47.0163C31.3653 46.6 31.7968 45.8303 32.0483 45.3049C32.2998 44.7795 32.6194 44.0273 32.7583 43.6333C32.8979 43.2393 33.1176 42.5053 33.2461 42.0015C33.3754 41.4976 33.5341 40.6833 33.5975 40.1906C33.6618 39.6978 33.7157 38.9098 33.7173 38.4393C33.7205 37.7357 33.6959 37.5502 33.5785 37.3974C33.4611 37.2429 33.3278 37.1992 32.8019 37.1418C32.4529 37.1044 31.5422 37.0527 30.7791 37.0272C29.6233 36.9882 29.348 37.001 29.133 37.1028Z" fill="#393939"/>
      <path id="Path 43" d="M25.2656 37.0396C24.4366 37.1065 23.6782 37.1933 23.5799 37.2331C23.4815 37.2721 23.3657 37.3946 23.3221 37.5037C23.2784 37.6136 23.2427 37.9718 23.2427 38.2997C23.2427 38.6285 23.2991 39.3353 23.3689 39.8718C23.4379 40.4083 23.6306 41.3842 23.7964 42.0409C23.963 42.6976 24.2319 43.5756 24.3946 43.9912C24.5572 44.4075 24.8903 45.1414 25.1347 45.623C25.379 46.1046 25.7788 46.8035 26.0231 47.1752C26.3095 47.6114 26.7466 48.1145 27.2551 48.5913C27.6874 48.9988 28.069 49.33 28.1015 49.3276C28.134 49.326 28.161 49.0649 28.1602 48.7473C28.1602 48.4297 28.2007 45.8419 28.2506 42.9962C28.3331 38.322 28.33 37.795 28.2165 37.5435C28.1435 37.3819 27.9801 37.2084 27.8286 37.1312C27.6842 37.0579 27.3876 36.9799 27.1694 36.9584C26.9513 36.9369 26.0945 36.9736 25.2656 37.0396Z" fill="#393939"/>
      <path id="Path 44" d="M36.8423 38.1007C36.8423 38.9102 36.8534 39.2334 36.8685 38.8171C36.8828 38.4008 36.8828 37.7385 36.8685 37.3445C36.8534 36.9504 36.8423 37.2911 36.8423 38.1007Z" fill="#FFFFFF" fill-opacity="0.1"/>
      <path id="Path 45" d="M41.9557 36.0166C41.9621 36.0461 42.035 36.3931 42.1175 36.7871C42.2008 37.1812 42.3619 37.7543 42.4769 38.0608C42.5911 38.3672 42.8624 38.9403 43.079 39.3344C43.2955 39.7284 43.785 40.4504 44.1657 40.9383C44.5473 41.4263 45.3017 42.3759 45.8419 43.0477C46.3821 43.7196 47.085 44.6636 47.4031 45.1452C47.722 45.6268 48.1281 46.2986 48.305 46.6377L48.6279 47.2546C48.9658 46.7444 49.18 46.4937 49.322 46.3687L49.5798 46.1402C48.6961 44.4439 48.236 43.5389 47.9885 43.0358C47.7402 42.5319 47.3935 41.7797 47.2182 41.3642C47.0429 40.9479 46.7899 40.2673 46.6558 39.8518C46.5218 39.4355 46.3845 38.9913 46.3504 38.8631C46.2988 38.6713 46.1846 38.5837 45.6928 38.3601C45.366 38.2112 44.7591 37.888 44.3442 37.6413C43.9294 37.3953 43.2202 36.9169 42.7672 36.5786C42.3143 36.2395 41.9494 35.9872 41.9557 36.0166Z" fill="#393939"/>
      <path id="Path 46" d="M14.5035 36.3264C14.2719 36.5222 13.7071 36.9346 13.2494 37.2418C12.7917 37.5483 12.0238 37.9901 11.5439 38.2225L10.6713 38.6452C10.4396 39.4882 10.2294 40.1265 10.0549 40.6081C9.88037 41.0897 9.51467 41.9677 9.241 42.5583C8.96732 43.149 8.43821 44.2061 8.06458 44.9066L7.38554 46.1802C7.65684 46.3784 7.87896 46.6236 8.05348 46.852L8.37078 47.2683C8.96335 46.1165 9.37347 45.428 9.66539 44.9941C9.95652 44.5611 10.4991 43.8272 10.8712 43.3623C11.2424 42.8982 11.8508 42.142 12.2229 41.6827C12.5957 41.2226 13.128 40.5062 13.4064 40.0907C13.6841 39.6744 14.0664 39.0121 14.2552 38.6181C14.444 38.2241 14.6892 37.5435 14.7994 37.1057C14.9097 36.6679 14.9835 36.2333 14.962 36.1393C14.9271 35.9809 14.8954 35.9937 14.5035 36.3264Z" fill="#C9A84C"/>
      <path id="Path 47" d="M10.3435 35.3547C10.3443 35.8363 10.357 36.0154 10.3729 35.7527C10.3887 35.4901 10.3887 35.096 10.3729 34.8771C10.3562 34.6582 10.3435 34.8731 10.3435 35.3547Z" fill="#FFFFFF" fill-opacity="0.1"/>
      <path id="Path 48" d="M46.6745 35.4739C46.7031 37.1949 46.7515 38.1565 46.83 38.5386C46.8927 38.845 47.041 39.3823 47.16 39.7326C47.279 40.0828 47.5193 40.7093 47.6939 41.1256C47.8692 41.5419 48.3864 42.634 48.8441 43.5534C49.3018 44.4728 49.7611 45.3683 49.865 45.5434L50.053 45.8618C50.6996 45.6501 51.0216 45.5872 51.185 45.5856C51.3844 45.584 51.4738 45.55 51.4532 45.4837C51.4373 45.4288 51.2596 44.8652 51.0589 44.23C50.8503 43.5693 50.5227 42.2081 50.2918 41.046C50.0697 39.93 49.7984 38.658 49.6873 38.2201C49.5771 37.7823 49.3685 37.1193 49.2241 36.7475C49.0797 36.3758 48.8298 35.8385 48.668 35.5535C48.507 35.2686 48.2087 34.8037 48.0064 34.5187C47.8033 34.2337 47.4115 33.7689 47.1354 33.4839L46.6341 32.9665L46.6745 35.4739Z" fill="#393939"/>
      <path id="Path 49" d="M9.77149 33.5279C9.49623 33.832 9.04248 34.4218 8.76404 34.8373C8.4856 35.2536 8.11039 35.9342 7.93032 36.3497C7.74945 36.766 7.51465 37.4108 7.40755 37.7825C7.30046 38.1551 6.99823 39.5163 6.73645 40.8074C6.43818 42.2816 6.11849 43.5998 5.87813 44.3496L5.49578 45.5436C6.12405 45.6248 6.44929 45.706 6.62381 45.7768C6.87527 45.8779 6.9538 45.8835 7.00299 45.8039C7.0363 45.7482 7.48767 44.8614 8.00488 43.8322C8.52289 42.8038 9.14243 41.4601 9.38279 40.8472C9.62236 40.2342 9.87303 39.5362 9.93966 39.295C10.0055 39.0546 10.1007 38.6605 10.1507 38.4194C10.2006 38.179 10.2689 37.086 10.303 35.9915C10.3363 34.897 10.3434 33.7707 10.3181 33.4881L10.2728 32.9747L9.77149 33.5279Z" fill="#C9A84C"/>
      <path id="Path 50" d="M46.6281 33.0166C46.5979 33.0811 46.5813 33.6152 46.5916 34.2043L46.6098 35.2749L46.6423 32.9665C47.1992 33.5221 47.361 33.6646 47.361 33.6431C47.361 33.6216 47.2087 33.4449 47.0223 33.2515C46.7613 32.98 46.6709 32.9259 46.6281 33.0166Z" fill="#FFFFFF" fill-opacity="0.1"/>
      <path id="Path 51" d="M10.8239 34.0807C10.8239 35.219 10.835 35.6664 10.8485 35.0757C10.862 34.4851 10.862 33.553 10.8485 33.0061C10.835 32.4585 10.8239 32.9424 10.8239 34.0807Z" fill="#FFFFFF" fill-opacity="0.1"/>
      <path id="Path 52" d="M46.1236 33.7227C46.1236 34.8833 46.1347 35.3481 46.1482 34.7575C46.1617 34.1669 46.1617 33.2172 46.1482 32.6481C46.1347 32.0789 46.1236 32.5621 46.1236 33.7227Z" fill="#FFFFFF" fill-opacity="0.1"/>
      <path id="Path 53" d="M29.0523 31.5599C28.8493 31.7653 28.8207 31.8695 28.7279 32.734C28.6684 33.2848 28.6446 34.0418 28.6708 34.5385C28.6962 35.009 28.7549 35.493 28.8009 35.6132C28.8477 35.7334 28.9818 35.9308 29.0984 36.051C29.2229 36.1783 29.4609 36.3017 29.6687 36.3479C29.8655 36.3909 30.508 36.48 31.0966 36.5453C31.6852 36.6106 32.5062 36.6886 32.9211 36.718L33.6747 36.7713C33.9405 36.1672 34.0785 35.7588 34.1523 35.4739C34.2268 35.1865 34.2855 34.6731 34.2832 34.3196C34.2816 33.9694 34.2419 33.5125 34.1951 33.3047C34.1356 33.0381 34.0468 32.8829 33.8929 32.7778C33.7731 32.6958 33.2464 32.457 32.7228 32.2468C32.1992 32.0367 31.3782 31.7462 30.8983 31.6005C30.4184 31.4556 29.8567 31.3362 29.6505 31.3354C29.3427 31.3346 29.2348 31.3752 29.0523 31.5599Z" fill="#393939"/>
      <path id="Path 54" d="M26.9317 31.3441C26.7572 31.3863 26.1678 31.5662 25.6228 31.7437C25.0771 31.922 24.3631 32.1743 24.0363 32.3041C23.7087 32.433 23.3168 32.6209 23.1637 32.7204C22.9305 32.8716 22.8686 32.9759 22.779 33.3715C22.7203 33.631 22.6742 34.111 22.6774 34.4398C22.6814 34.7677 22.7425 35.2342 22.8139 35.4746C22.886 35.715 23.0296 36.1002 23.1335 36.3303C23.3049 36.71 23.3461 36.7482 23.5802 36.7474C23.7222 36.7474 24.5702 36.675 25.4642 36.5858C26.3582 36.4974 27.2149 36.3924 27.368 36.3534C27.5219 36.3136 27.7607 36.1552 27.9035 35.9975C28.0455 35.8407 28.1867 35.5796 28.2184 35.4149C28.2493 35.2509 28.2763 34.4358 28.2779 33.604C28.2795 32.4115 28.2549 32.0422 28.1613 31.8599C28.0962 31.7325 27.9526 31.5638 27.844 31.4858C27.7345 31.407 27.556 31.3258 27.4473 31.3059C27.3379 31.2852 27.1062 31.3027 26.9317 31.3441Z" fill="#393939"/>
      <path id="Path 55" d="M37.5025 28.6316C37.3391 28.7176 36.9821 28.841 36.7092 28.9062C36.4363 28.9707 35.9548 29.0249 35.6383 29.0256L35.0632 29.0264C35.1203 29.3655 35.1584 29.5892 35.1854 29.7429C35.2115 29.8957 35.1917 30.3255 35.1409 30.6981C35.0902 31.0698 34.9442 31.6612 34.8165 32.0115L34.5841 32.6483C34.7729 33.5732 34.8268 34.1647 34.8252 34.5587C34.8236 35.1446 34.7744 35.4343 34.5539 36.1507C34.2921 37.0016 34.2834 37.0741 34.243 38.7377C34.212 39.9867 34.1589 40.6537 34.0454 41.2054C33.9605 41.6217 33.8114 42.2298 33.7138 42.5586C33.6171 42.8865 33.3862 43.5496 33.2006 44.0312C33.015 44.5128 32.7159 45.2021 32.5358 45.5635C32.355 45.9249 32.2162 46.2369 32.2273 46.2568C32.2384 46.2767 32.5731 45.9098 32.9713 45.4409C33.3696 44.9721 33.855 44.391 34.0494 44.1506C34.2445 43.9102 34.8474 43.1221 35.3908 42.3994C35.9334 41.6766 36.4649 40.9069 36.5728 40.688C36.7671 40.2939 36.7695 40.2637 36.8116 37.5039L36.8552 34.7179C37.6024 33.1139 37.9713 32.2367 38.1577 31.7329L38.4972 30.8175C38.1791 29.5837 38.0713 29.0551 38.0522 28.8473C38.029 28.5953 37.9811 28.4703 37.9086 28.4724C37.8491 28.4748 37.6659 28.5465 37.5025 28.6316Z" fill="#393939"/>
      <path id="Path 56" d="M18.9174 28.7679C18.8904 28.9319 18.7802 29.4429 18.6715 29.9022C18.4795 30.7157 18.4779 30.7484 18.6088 31.136C18.6826 31.3549 18.8841 31.8922 19.0562 32.33C19.2292 32.7678 19.552 33.5201 19.7749 34.0016L20.1803 34.8772L20.189 40.2901C20.5246 40.9683 21.0243 41.7046 21.5162 42.3637C22.008 43.0228 22.7917 44.0075 23.259 44.5527C23.7254 45.098 24.2696 45.7228 24.4679 45.9417L24.8273 46.3398C24.2601 45.1059 23.9428 44.3537 23.7571 43.8721C23.5715 43.3905 23.3089 42.5484 23.1733 42.0015C23.0384 41.4539 22.8719 40.5767 22.8036 40.0513C22.7322 39.5028 22.687 38.6559 22.6973 38.0613C22.7148 37.0631 22.7053 36.9946 22.4229 36.1111C22.1801 35.3501 22.1309 35.0818 22.1309 34.519C22.1317 34.1473 22.1912 33.5559 22.2642 33.2056L22.3959 32.5688C22.0183 31.5818 21.8715 31.0262 21.8255 30.6982C21.7803 30.3695 21.77 29.9038 21.8025 29.6634C21.8351 29.423 21.8866 29.181 21.9176 29.1261C21.9604 29.0505 21.8279 29.0266 21.3591 29.025C21.0212 29.0242 20.5119 28.9749 20.2287 28.9159C19.9447 28.8562 19.5615 28.7313 19.3759 28.6381C19.1903 28.5458 19.0221 28.4694 19.0023 28.4694C18.9817 28.4694 18.9436 28.6039 18.9174 28.7679Z" fill="#393939"/>
      <path id="Path 57" d="M28.8696 26.8439C28.6824 27.0445 28.6777 27.0819 28.6816 28.3364C28.6848 29.3712 28.7118 29.6824 28.8204 29.922C28.895 30.086 29.0711 30.2922 29.2131 30.3797C29.3551 30.4665 29.9707 30.7045 30.5815 30.9083C31.1923 31.1121 32.1918 31.4703 32.8026 31.7043C33.4135 31.9391 33.9933 32.1309 34.0917 32.1309C34.1988 32.1309 34.3257 32.0442 34.409 31.9152C34.5185 31.7457 34.5542 31.4798 34.5764 30.6615C34.5978 29.8894 34.5764 29.5519 34.4923 29.3449C34.3836 29.0775 34.3321 29.0504 33.2334 28.6691C32.6043 28.451 31.6786 28.0721 31.1764 27.8285C30.6743 27.5849 30.0056 27.2172 29.6891 27.0118C29.3726 26.8064 29.102 26.6385 29.0878 26.6385C29.0735 26.6385 28.9751 26.7308 28.8696 26.8439Z" fill="#393939"/>
      <path id="Path 58" d="M27.2498 27.0143C26.9444 27.2149 26.3558 27.5484 25.9409 27.7554C25.5261 27.9624 24.8486 28.2577 24.4337 28.4121C24.0189 28.5657 23.4723 28.7584 23.2177 28.8396C22.963 28.9208 22.6774 29.0704 22.583 29.1731C22.4236 29.345 22.4109 29.4382 22.4149 30.4467C22.4188 31.2913 22.4498 31.6009 22.5537 31.8326C22.6576 32.0618 22.7346 32.1311 22.8869 32.1311C22.9963 32.1311 23.4334 31.9918 23.8586 31.8206C24.2838 31.6503 25.2746 31.2913 26.0599 31.023C26.8453 30.7548 27.5949 30.4714 27.7258 30.3926C27.8567 30.3146 28.0328 30.11 28.1161 29.9373C28.2351 29.6937 28.2771 29.3936 28.3057 28.5888C28.3263 28.0197 28.3199 27.4195 28.2922 27.2555C28.2644 27.0915 28.17 26.8854 28.0828 26.7978C27.9955 26.7103 27.8971 26.641 27.8646 26.6442C27.8321 26.6474 27.5552 26.8137 27.2498 27.0143Z" fill="#393939"/>
      <path id="Path 59" d="M39.608 26.4516C39.4311 26.7955 39.1225 27.2914 38.9226 27.5541C38.6346 27.9338 38.5593 28.097 38.5577 28.3501C38.5561 28.5252 38.6235 28.9551 38.7076 29.3053C38.7909 29.6556 38.9559 30.2112 39.0741 30.5391C39.1915 30.8679 39.4572 31.4768 39.6651 31.8924C39.8721 32.3087 40.2561 32.9709 40.517 33.365C40.7788 33.759 41.2738 34.3815 41.6173 34.7492C41.9616 35.1162 42.5105 35.6328 42.8374 35.8963C43.165 36.1605 43.7536 36.5896 44.1462 36.8491C44.5389 37.1094 45.1815 37.4851 45.5741 37.6841L46.2881 38.0463C46.1945 37.5647 46.1477 36.1351 46.1247 34.559C46.1017 32.9829 46.0445 31.4784 45.9977 31.2157C45.9509 30.9531 45.7899 30.4158 45.6384 30.0217C45.4877 29.6277 45.1704 28.9025 44.934 28.4098L44.5032 27.5143C44.0423 27.5135 43.6227 27.4443 43.2737 27.3599C42.9246 27.2747 42.3178 27.0757 41.9251 26.9173C41.5324 26.7581 40.9795 26.5002 40.6955 26.3434C40.4115 26.1874 40.1236 26.0067 40.0554 25.943C39.9435 25.8387 39.8967 25.8928 39.608 26.4516Z" fill="#393939"/>
      <path id="Path 60" d="M16.9204 25.9381C16.8752 25.9946 16.4675 26.2255 16.0145 26.4516C15.5624 26.6776 14.9238 26.9594 14.5969 27.0772C14.2693 27.1958 13.6538 27.3518 13.2286 27.4227L12.4551 27.5532C11.7237 29.0959 11.3779 29.9373 11.2145 30.4189L10.9178 31.2945C10.8321 35.9829 10.7797 37.5049 10.7448 37.7023L10.683 38.0605C12.1481 37.2852 12.9128 36.8203 13.3277 36.5266C13.7426 36.2337 14.4573 35.6168 14.9166 35.1567C15.464 34.6082 15.9534 34.0168 16.335 33.4437C16.6547 32.9621 17.087 32.2282 17.2948 31.8119C17.5027 31.3956 17.7795 30.7516 17.9112 30.3791C18.0429 30.0073 18.2071 29.4246 18.2777 29.0855C18.3475 28.7464 18.4062 28.3882 18.4078 28.2895C18.4094 28.1908 18.242 27.878 18.0366 27.593C17.8303 27.3089 17.513 26.797 17.3321 26.4555C17.0838 25.9875 16.9831 25.8609 16.9204 25.9381Z" fill="#C9A84C"/>
      <path id="Path 61" d="M29.669 19.3933C29.4722 19.4252 29.2319 19.4928 29.1335 19.543C29.0312 19.5955 28.9193 19.7603 28.8702 19.9322C28.8154 20.1257 28.7948 21.1732 28.8107 22.9037L28.836 25.5759C29.1518 26.0599 29.4905 26.3687 29.7935 26.5741C30.0958 26.7795 30.6645 27.0883 31.0572 27.2603C31.4499 27.4322 32.1638 27.7005 32.6437 27.8565C33.1237 28.0117 33.882 28.2139 34.3294 28.3046C34.7768 28.3954 35.4194 28.4702 35.7573 28.471C36.1508 28.4718 36.5577 28.4153 36.8877 28.3142C37.1717 28.2266 37.5905 28.0284 37.8198 27.874C38.061 27.7116 38.3846 27.3845 38.5877 27.0963C38.7812 26.8225 39.0525 26.3481 39.1898 26.0416L39.4404 25.4844C39.0938 25.2376 38.7598 24.9638 38.4758 24.717C38.1911 24.4695 37.7619 24.0301 37.5223 23.7395C37.2828 23.4498 36.8972 22.8997 36.6664 22.5177C36.4356 22.1356 36.1714 21.6253 36.0786 21.3849C35.9564 21.0681 35.9025 20.7211 35.8834 20.1312L35.8565 19.3153C31.338 19.3297 29.8657 19.3607 29.669 19.3933Z" fill="#393939"/>
      <path id="Path 62" d="M21.125 19.972C21.1171 20.3462 21.0481 20.8341 20.964 21.1063C20.8831 21.369 20.6887 21.8172 20.5317 22.1014C20.3746 22.3855 20.0343 22.9053 19.7757 23.2556C19.5171 23.6058 18.8975 24.2792 18.3994 24.7513L17.4927 25.6109C18.013 26.6235 18.3518 27.1273 18.5818 27.3837C18.8912 27.7291 19.1545 27.9249 19.5948 28.1375C20.1215 28.3906 20.277 28.4272 20.9434 28.4559C21.4392 28.4766 21.9413 28.4423 22.4109 28.3548C22.8036 28.2816 23.5001 28.1104 23.9578 27.9751C24.4155 27.839 25.0763 27.6137 25.4253 27.4728C25.7744 27.3319 26.2202 27.1361 26.4169 27.0358C26.6136 26.9363 26.9793 26.7166 27.23 26.5478C27.4807 26.3791 27.7845 26.1092 27.9043 25.9485L28.1224 25.6563C28.17 20.0612 28.1629 19.902 28.0201 19.7133C27.8979 19.5533 27.7488 19.4944 27.2617 19.4148C26.8588 19.3488 25.7268 19.3153 23.8967 19.3153H21.1393L21.125 19.972Z" fill="#393939"/>
      <path id="Path 63" d="M34.8653 18.8167C35.1271 18.8326 35.5197 18.8326 35.7379 18.8167C35.956 18.8 35.7418 18.7872 35.2619 18.7872C34.782 18.788 34.6035 18.8008 34.8653 18.8167Z" fill="#FFFFFF" fill-opacity="0.1"/>
      <path id="Path 64" d="M30.819 18.8162C30.9935 18.8329 31.2965 18.8329 31.4933 18.8162C31.69 18.7995 31.5464 18.786 31.176 18.786C30.8055 18.786 30.6445 18.7995 30.819 18.8162Z" fill="#FFFFFF" fill-opacity="0.1"/>
      <path id="Path 65" d="M25.6228 18.8166C25.7759 18.8333 26.0432 18.8333 26.2178 18.8166C26.3923 18.7991 26.2677 18.7855 25.9401 18.7855C25.6125 18.7855 25.4697 18.7991 25.6228 18.8166Z" fill="#FFFFFF" fill-opacity="0.1"/>
      <path id="Path 66" d="M21.3779 18.8168C21.6833 18.8319 22.1473 18.8319 22.4091 18.8168C22.6709 18.8009 22.421 18.789 21.8538 18.789C21.2866 18.789 21.0725 18.8017 21.3779 18.8168Z" fill="#FFFFFF" fill-opacity="0.1"/>
      <path id="Path 67" d="M16.4802 18.7243C16.2295 18.7863 15.8011 18.9376 15.5282 19.0602C15.2553 19.1835 14.8722 19.3929 14.6755 19.5258C14.4787 19.6588 14.1273 19.9612 13.8941 20.1985C13.6609 20.4349 13.3507 20.8432 13.2048 21.1059C13.0588 21.3686 12.866 21.8526 12.7764 22.1805C12.6867 22.5093 12.5804 23.2074 12.54 23.7327C12.4964 24.3003 12.4956 25.1074 12.5368 25.7227C12.5757 26.2919 12.6082 26.8204 12.6098 26.8969C12.6122 27.0139 12.6614 27.0282 12.9105 26.9852C13.0739 26.9574 13.511 26.8475 13.8822 26.7416C14.2535 26.6358 14.8952 26.3874 15.3101 26.1908C15.725 25.9942 16.4024 25.6065 16.8173 25.3303C17.2322 25.0533 17.8525 24.563 18.1968 24.2398C18.5411 23.9174 19.0789 23.3132 19.3914 22.8969C19.7048 22.4806 20.0911 21.8725 20.2506 21.5437C20.4108 21.2158 20.5813 20.7318 20.6305 20.4691C20.6797 20.2064 20.6987 19.8482 20.6726 19.6731C20.6472 19.498 20.5813 19.3037 20.5266 19.2425C20.4719 19.1804 20.2839 19.0657 20.1093 18.9877C19.9348 18.9097 19.5334 18.7895 19.2169 18.7219C18.8822 18.6502 18.2856 18.6009 17.789 18.6049C17.3202 18.6088 16.7308 18.6622 16.4802 18.7243Z" fill="#393939"/>
      <path id="Path 68" d="M38.3956 18.6091C38.068 18.6465 37.5691 18.746 37.2851 18.8312C37.0011 18.9164 36.6711 19.0605 36.5513 19.1512C36.4093 19.2579 36.3157 19.4187 36.2832 19.6137C36.2554 19.7777 36.2729 20.1454 36.3228 20.4296C36.372 20.7138 36.5307 21.1802 36.6758 21.4644C36.821 21.7486 37.1137 22.2508 37.3271 22.5788C37.5397 22.9076 38.072 23.534 38.5107 23.9718C38.9493 24.4096 39.6466 24.9987 40.0615 25.2812C40.4764 25.5638 41.2078 25.9841 41.6877 26.215C42.1676 26.4458 42.8459 26.7045 43.1949 26.7889C43.544 26.8741 43.9453 26.964 44.0873 26.9903C44.3412 27.0356 44.3459 27.0309 44.3816 26.6981C44.4023 26.5119 44.4396 25.9125 44.4657 25.3648C44.4919 24.818 44.4752 23.9933 44.4292 23.534C44.3832 23.0747 44.2896 22.4833 44.2214 22.2206C44.1532 21.9579 43.9961 21.5281 43.8724 21.2654C43.7486 21.0027 43.4567 20.5753 43.2227 20.3158C42.9895 20.0571 42.5302 19.6694 42.2033 19.4561C41.8757 19.2427 41.3403 18.9832 41.0134 18.8798C40.6858 18.7763 40.2217 18.6688 39.9822 18.6418C39.7426 18.6147 39.4205 18.5813 39.2682 18.5677C39.1159 18.5534 38.7225 18.5725 38.3956 18.6091Z" fill="#393939"/>
      <path id="Path 69" d="M22.3671 16.1553C21.2525 16.9083 20.1816 17.6366 19.9873 17.7743C19.7921 17.9113 19.5089 18.0752 19.3558 18.1389L19.0782 18.2535C19.7541 18.3467 20.165 18.4589 20.4268 18.5632C20.894 18.7495 20.9551 18.7534 23.8862 18.7757L26.8697 18.798C25.8115 17.6717 25.3878 17.1519 25.2466 16.917C25.1054 16.6822 24.9008 16.2747 24.7921 16.012C24.6842 15.7493 24.5763 15.364 24.5533 15.1563C24.5311 14.9485 24.4851 14.7798 24.4526 14.7821C24.4201 14.7845 23.4808 15.403 22.3671 16.1553Z" fill="#393939"/>
      <path id="Path 70" d="M32.3735 15.2284C32.3267 15.5062 32.2053 15.9209 32.1045 16.1509C32.0038 16.381 31.7809 16.7838 31.6095 17.0464C31.4374 17.3091 31.0241 17.8106 30.6901 18.1608L30.0825 18.7977C35.8908 18.7435 36.1637 18.7284 36.4921 18.5867C36.688 18.5015 37.0704 18.3893 37.3409 18.3368L37.8319 18.2404C37.3163 17.9817 36.8451 17.6761 36.4524 17.3935C36.0598 17.1109 35.0008 16.3945 34.0988 15.8015L32.4599 14.7237L32.3735 15.2284Z" fill="#393939"/>
      <path id="Path 71" d="M24.831 13.2653C24.8286 14.0915 24.8651 14.4824 24.9872 14.9568C25.0753 15.2959 25.2498 15.7799 25.3759 16.0314C25.5021 16.283 25.7654 16.704 25.9622 16.9667C26.1581 17.2294 26.5992 17.7142 26.9426 18.0437C27.2853 18.3725 27.7534 18.7936 27.9826 18.979C28.2119 19.1637 28.4348 19.3149 28.4784 19.3149C28.522 19.3149 28.8163 19.1088 29.1329 18.8572C29.4494 18.6057 29.9515 18.1496 30.2482 17.8423C30.5457 17.5359 30.9304 17.0702 31.1041 16.8075C31.2778 16.5448 31.5246 16.115 31.6523 15.8523C31.78 15.5896 31.9394 15.0969 32.0061 14.7578C32.0767 14.4004 32.1266 13.7302 32.1251 13.1658L32.1227 12.1907C31.8585 12.5608 31.6166 12.8291 31.4135 13.0265C31.2112 13.2239 30.7979 13.516 30.4957 13.6776C30.1935 13.8384 29.6786 14.0446 29.351 14.1353C29.0242 14.2261 28.6307 14.3009 28.4784 14.3017C28.3261 14.3025 27.9152 14.2213 27.5662 14.1202C27.2171 14.0199 26.6999 13.8058 26.4159 13.6442C26.1327 13.4834 25.7385 13.1976 25.5409 13.0098C25.3434 12.8219 25.1031 12.5608 25.0079 12.4295L24.8341 12.1907L24.831 13.2653Z" fill="#FFFFFF" fill-opacity="0.1"/>
      <path id="Path 72" d="M23.9827 4.4694C23.9827 4.77587 23.997 4.88333 24.0144 4.70821C24.0311 4.53308 24.0311 4.28234 24.0136 4.151C23.9962 4.01966 23.9819 4.16294 23.9827 4.4694Z" fill="#FFFFFF" fill-opacity="0.1"/>
      <path id="Path 73" d="M27.1695 0.160645C26.9513 0.213181 26.5587 0.359646 26.2969 0.486211C26.0232 0.619145 25.6131 0.922423 25.3323 1.20023C24.9658 1.56241 24.7651 1.85296 24.5287 2.36001C24.355 2.73254 24.1685 3.23323 24.113 3.47442C24.044 3.77531 24.0289 4.20516 24.0638 4.84754C24.1146 5.76135 24.1114 5.78523 23.9369 5.87518C23.8385 5.92613 23.7156 6.02483 23.664 6.09408C23.6117 6.16413 23.5284 6.38224 23.4792 6.57885C23.4126 6.84472 23.4126 7.10024 23.4792 7.57386C23.5284 7.9241 23.6204 8.39852 23.6839 8.62857C23.756 8.89205 23.8941 9.14199 24.0591 9.30518C24.2431 9.48746 24.3962 9.78596 24.5802 10.3201C24.7238 10.7364 24.9769 11.3095 25.1435 11.5937C25.3101 11.8779 25.5837 12.2552 25.7527 12.4303C25.9209 12.6062 26.2191 12.8625 26.4159 12.9994C26.6126 13.1372 26.9696 13.3314 27.2091 13.4325C27.5724 13.5853 27.7914 13.6171 28.518 13.6195C29.347 13.6235 29.4184 13.61 29.9459 13.3576C30.2513 13.212 30.6424 12.9788 30.8137 12.8402C30.9859 12.7017 31.2834 12.3738 31.4745 12.1111C31.6649 11.8484 31.9211 11.4186 32.0425 11.1559C32.1639 10.8932 32.3439 10.4275 32.4423 10.1211C32.5565 9.76606 32.6946 9.50577 32.8223 9.40468C32.9326 9.31712 33.0888 9.11095 33.1697 8.94697C33.2507 8.783 33.3744 8.28151 33.4442 7.83256C33.514 7.38361 33.5497 6.87337 33.5227 6.69825C33.495 6.52313 33.4022 6.26363 33.3157 6.12115C33.2229 5.96831 33.0936 5.86244 33 5.86244C32.8477 5.86244 32.8429 5.82583 32.8897 4.88734C32.927 4.13352 32.9088 3.79044 32.8104 3.37492C32.7398 3.0796 32.5526 2.57812 32.3931 2.26051C32.2067 1.88718 31.933 1.51386 31.6197 1.20501C31.354 0.941528 30.9391 0.630289 30.6995 0.514071C30.4599 0.397058 30.049 0.245021 29.7873 0.176565C29.4811 0.0953718 29.0003 0.0531836 28.4387 0.0579596C27.9588 0.0619396 27.3876 0.108108 27.1695 0.160645Z" fill="#FFFFFF" fill-opacity="0.1"/>
      <path id="Path 74" d="M28.1224 0.0302648C28.2969 0.046981 28.5999 0.046981 28.7967 0.0302648C28.9934 0.0135487 28.8498 1.61529e-05 28.4794 1.61529e-05C28.1081 1.61529e-05 27.9479 0.0135487 28.1224 0.0302648Z" fill="#FFFFFF" fill-opacity="0.1"/>
    </g>
  </g>
  <defs>
    <clipPath id="clip0_focus_muscle_arm">
      <rect width="44" height="44" rx="22" fill="white"/>
    </clipPath>
  </defs>
</svg>
