<svg preserveAspectRatio="none" width="100%" height="100%" overflow="visible" style="display: block;" viewBox="0 0 28 28" fill="none" xmlns="http://www.w3.org/2000/svg">
<g id="breakfast icon" clip-path="url(#clip0_0_32)">
<g id="Vector">
</g>
<path id="Subtract" d="M17.71 15.8574H19.9443L23.0576 15.8564C23.5797 15.8564 24.1037 15.8561 24.626 15.8584C24.7144 15.8684 24.8443 15.8545 24.9209 15.9062C25.1154 16.0388 25.118 16.2508 25.1094 16.4697C25.1057 16.5622 25.1049 16.6604 25.1025 16.7539C25.2294 16.7542 25.3546 16.7543 25.4814 16.7598C26.323 16.7971 26.9676 17.3525 27.1143 18.2402C27.2157 18.8344 27.0862 19.4471 26.7559 19.9395C26.3133 20.5939 25.6428 20.8974 24.9131 21.0225C24.773 21.0399 24.6744 21.0521 24.5322 21.0527C24.239 21.655 23.4024 22.7032 22.7617 23.0166C22.656 23.0674 22.0133 23.048 21.8535 23.0479L20.459 23.0469L19.3516 23.0479C19.1471 23.0483 18.9428 23.0507 18.7383 23.0459C18.5271 23.0409 18.3735 22.915 18.2129 22.7842C17.4375 22.1522 16.7933 21.3039 16.4795 20.3145C16.3839 20.0136 16.3187 19.7022 16.2852 19.3867C16.1828 18.3979 16.2726 17.271 16.2422 16.2686C16.2358 16.0554 16.3835 15.9204 16.5664 15.8613C16.8979 15.8421 17.3709 15.8574 17.71 15.8574ZM25.1016 17.6846C25.1031 18.4413 25.0754 19.3396 24.9082 20.0732C25.202 20.01 25.4535 19.9233 25.6982 19.7305C25.9966 19.474 26.1883 19.1826 26.2354 18.7744C26.3014 18.2033 26.0197 17.7226 25.4512 17.6904C25.3328 17.6836 25.2205 17.6828 25.1016 17.6846Z" fill="currentColor"/>
<path id="Vector_2" d="M4.6724 17.8899C5.01057 17.8557 5.39693 17.9087 5.66781 18.148C5.68659 18.1577 5.72296 18.2466 5.71489 18.2608C5.65539 18.366 5.56709 18.5017 5.50398 18.6012C5.1835 19.1064 4.87338 20.6044 5.81823 20.5871C6.42945 20.576 6.65608 19.4819 6.8465 19.0138C7.16194 18.2386 7.76424 17.7377 8.58252 17.91C8.71572 17.9385 8.97949 18.0553 9.07649 18.1609C9.08449 18.1696 9.09187 18.1789 9.09857 18.1887C9.14025 18.2495 9.11212 18.2793 9.07458 18.3392C9.00693 18.4528 8.90145 18.5697 8.84663 18.6898C8.62854 19.1672 8.3895 19.9694 8.76661 20.4248C8.84467 20.519 9.05052 20.601 9.16673 20.5892C9.82801 20.5223 9.96558 19.5777 10.1809 19.0414C10.4506 18.3696 10.8895 17.8706 11.6222 17.8777C11.9164 17.8806 12.2011 17.9676 12.4237 18.1815C12.4687 18.2247 12.4498 18.2917 12.4146 18.3321C12.1131 18.7088 11.9579 19.1887 11.9105 19.6774C11.8887 19.9021 11.9141 20.218 12.07 20.4041C12.1664 20.5178 12.3034 20.5838 12.4477 20.5861C13.0747 20.6012 13.2823 19.6081 13.4974 18.9869C13.7407 18.2842 14.5087 17.5701 15.3056 18.0026C15.3529 18.0284 15.2613 18.4541 15.2513 18.5474C15.2106 18.8394 15.1987 19.1351 15.2159 19.4295C15.3012 20.7564 16.0306 22.0828 16.9811 22.9412C17.0164 22.973 17.0192 22.9778 17.0217 23.0224L16.999 23.0465C16.8624 23.0571 16.656 23.051 16.5132 23.051L15.6393 23.0511L12.9279 23.0503L4.4258 23.0507H2.36939L1.72846 23.0509C1.64099 23.0509 1.41881 23.0705 1.35959 23.0229C1.35293 22.9519 1.50338 22.8693 1.5755 22.8052C1.9606 22.4626 2.28212 22.0462 2.53346 21.5863C2.75131 21.1835 2.92861 20.7575 3.06245 20.3154C3.36005 19.342 3.51051 18.0977 4.6724 17.8899Z" fill="currentColor"/>
<path id="Vector_3" d="M8.7461 7.48747C10.2755 7.36886 11.6055 8.58668 11.7146 10.2056C11.8236 11.8246 10.6704 13.2298 9.1406 13.3421C7.61498 13.4541 6.29171 12.2376 6.18292 10.6232C6.07414 9.00866 7.22091 7.60575 8.7461 7.48747Z" fill="currentColor"/>
<path id="Vector_4" d="M21.027 10.1755C21.2448 10.1589 21.44 10.2637 21.5064 10.4897C21.5696 10.7048 21.4155 10.9366 21.3175 11.1116C20.9179 11.8252 21.3879 12.2841 21.6082 12.9298C21.748 13.3709 21.5975 13.9512 21.3841 14.3383C21.2688 14.5473 21.1918 14.6615 20.9616 14.7297C20.7608 14.7486 20.5803 14.6745 20.4868 14.4759C20.3689 14.228 20.5515 13.999 20.638 13.7747C20.7399 13.5101 20.7466 13.2494 20.6396 12.983C20.5158 12.6741 20.3302 12.3982 20.2623 12.0629C20.1414 11.4668 20.3562 10.806 20.7254 10.3517C20.81 10.2479 20.9049 10.2043 21.027 10.1755Z" fill="currentColor"/>
<path id="Vector_5" d="M23.1036 10.1759C23.2112 10.1666 23.3016 10.1781 23.3979 10.2355C23.4983 10.2966 23.5708 10.3987 23.5982 10.5179C23.6411 10.7042 23.5223 10.8788 23.4402 11.0257C22.9534 11.898 23.4714 12.2028 23.6936 12.9791C23.8215 13.4258 23.6541 14.0008 23.4348 14.3866C23.3261 14.5778 23.2394 14.6742 23.0282 14.7311C22.9143 14.7345 22.8074 14.7251 22.7149 14.6544C22.3718 14.3957 22.5789 14.0765 22.7121 13.7775C22.9997 13.1315 22.4702 12.6786 22.3466 12.0782C22.2223 11.4746 22.4146 10.868 22.7725 10.3934C22.8601 10.2773 22.9628 10.2096 23.1036 10.1759Z" fill="currentColor"/>
<path id="Vector_6" d="M18.9148 10.1758C19.1277 10.1568 19.3193 10.2746 19.3794 10.493C19.4361 10.6997 19.314 10.8993 19.2149 11.0633C18.7678 11.8027 19.2558 12.2758 19.4796 12.9535C19.6155 13.3999 19.4499 13.9914 19.2295 14.3784C19.1201 14.5706 19.0408 14.6683 18.8273 14.7292C18.717 14.7361 18.5917 14.7243 18.5 14.6469C18.0539 14.2707 18.5917 13.8811 18.5864 13.3986C18.5761 12.8623 18.2181 12.5386 18.121 11.9869C18.0246 11.439 18.3318 10.2777 18.9148 10.1758Z" fill="currentColor"/>
<path id="Vector_7" d="M8.87429 4.30176C9.02944 4.30409 9.28219 4.41958 9.30443 4.59507C9.37214 5.12908 9.32623 5.70484 9.32984 6.24571C9.33155 6.50247 9.14492 6.6191 8.93786 6.67338C8.28178 6.67962 8.4777 5.97804 8.44759 5.51694C8.43143 5.26952 8.4513 4.98444 8.4579 4.73514C8.46475 4.47683 8.64114 4.33406 8.87429 4.30176Z" fill="currentColor"/>
<path id="Vector_8" d="M8.83343 14.0532C9.13259 14.0263 9.33108 14.2278 9.32709 14.5407C9.32176 14.9576 9.3386 15.3775 9.3239 15.7944C9.31466 16.0567 9.17766 16.1765 8.95003 16.243C8.63688 16.2778 8.44471 16.0462 8.44855 15.7293C8.45361 15.3141 8.43467 14.8943 8.45482 14.4796C8.46721 14.2246 8.61282 14.1036 8.83343 14.0532Z" fill="currentColor"/>
<path id="Vector_9" d="M12.8085 9.95822C13.1375 9.94604 13.4661 9.9721 13.8195 9.95385C14.2341 9.93248 14.6658 10.0285 14.4867 10.6196C14.452 10.7342 14.2919 10.8182 14.1807 10.8541C13.9411 10.8673 12.8492 10.8893 12.6937 10.8175C12.5903 10.7696 12.4998 10.6778 12.4635 10.563C12.4292 10.4545 12.4288 10.3175 12.4805 10.2154C12.557 10.0642 12.6583 10.003 12.8085 9.95822Z" fill="currentColor"/>
<path id="Vector_10" d="M3.67514 9.95712C3.98778 9.9454 4.30774 9.96346 4.62143 9.95378C4.735 9.95026 4.87996 9.94615 4.99185 9.95858C5.05309 9.96487 5.11293 9.9818 5.16897 10.0087C5.39534 10.12 5.45434 10.379 5.35533 10.618C5.30141 10.7482 5.17682 10.8124 5.05362 10.8538C4.81039 10.8643 4.57219 10.8479 4.30144 10.8556C3.85751 10.8683 3.12505 10.9435 3.36573 10.1868C3.40086 10.0763 3.5679 9.99052 3.67514 9.95712Z" fill="currentColor"/>
<path id="Vector_11" d="M5.13647 6.12244C5.26995 6.11317 5.4225 6.15126 5.51865 6.2556C5.78652 6.5613 6.10327 6.83617 6.36576 7.14411C6.62948 7.4535 6.4706 7.78837 6.13209 7.91054C6.02823 7.91736 5.94122 7.90826 5.84653 7.85693C5.76469 7.81256 4.99183 7.01829 4.89043 6.89095C4.84226 6.83044 4.80134 6.76138 4.7807 6.68482C4.75041 6.57253 4.76678 6.45849 4.82065 6.35732C4.89129 6.22461 5.00365 6.16314 5.13647 6.12244Z" fill="currentColor"/>
<path id="Vector_12" d="M12.5026 6.13799C12.8597 6.09888 13.1455 6.41247 12.9818 6.78927C12.9385 6.88879 12.6181 7.21464 12.5318 7.29558C12.3383 7.47721 12.0777 7.84437 11.8342 7.91465C11.3059 7.97043 11.1319 7.36941 11.5477 7.03196C11.8133 6.81641 12.1922 6.24377 12.5026 6.13799Z" fill="currentColor"/>
<path id="Vector_13" d="M11.7078 12.8398C12.0608 12.8443 12.4554 13.4854 12.7392 13.7174C13.0774 13.9938 13.0527 14.5284 12.5523 14.6111C12.2994 14.6002 12.2081 14.4607 12.0409 14.2832C11.8087 14.0366 11.5648 13.7966 11.347 13.5363C11.3137 13.4964 11.2906 13.4014 11.2842 13.3493C11.2711 13.2346 11.3018 13.1191 11.3695 13.0285C11.4608 12.9046 11.5679 12.8598 11.7078 12.8398Z" fill="currentColor"/>
<path id="Vector_14" d="M6.01677 12.8382C6.3496 12.8121 6.6244 13.1948 6.44217 13.5105C6.32132 13.6691 6.15462 13.8596 6.01111 13.9952C5.80301 14.1917 5.58609 14.5281 5.31932 14.6035C5.07502 14.6161 4.8963 14.506 4.8254 14.2451C4.80331 14.1637 4.82269 13.9946 4.87504 13.9277C5.15631 13.5686 5.49622 13.2421 5.81415 12.9183C5.8586 12.8731 5.96235 12.8498 6.01677 12.8382Z" fill="currentColor"/>
</g>
<defs>
<clipPath id="clip0_0_32">
<rect width="28" height="28" fill="white"/>
</clipPath>
</defs>
</svg>
