<svg width="100%" height="100%" viewBox="0 0 11.9961 11.96" fill="none" xmlns="http://www.w3.org/2000/svg">
<g id="Group 1000002111">
<path id="Vector" d="M11.996 4.8481C11.8615 3.70404 11.3782 2.62907 10.6118 1.76911C9.84531 0.909154 8.83281 0.305869 7.7117 0.0411497C7.61812 0.00694077 7.51814 -0.00618879 7.4189 0.00269817C7.31967 0.0115851 7.22361 0.0422694 7.1376 0.0925609L0.531257 4.28258C0.382474 4.37459 0.257061 4.49986 0.164881 4.64854C0.0726997 4.79722 0.0162628 4.96525 7.11958e-06 5.13943V8.90959C-0.000614069 9.04071 0.0394281 9.16879 0.11462 9.27621C0.189812 9.38363 0.296455 9.46509 0.419866 9.50939C0.541159 9.55612 0.673998 9.5639 0.799919 9.53165C0.925839 9.49941 1.03859 9.42873 1.12249 9.32945C1.21759 9.2146 1.33562 9.12088 1.46903 9.05428C1.60244 8.98767 1.74829 8.94966 1.89723 8.94267C2.04618 8.93568 2.19495 8.95987 2.33401 9.01369C2.47307 9.06751 2.59936 9.14977 2.70479 9.2552C2.81023 9.36064 2.89249 9.48693 2.94631 9.62599C3.00013 9.76505 3.02431 9.91382 3.01733 10.0628C3.01034 10.2117 2.97232 10.3576 2.90572 10.491C2.83912 10.6244 2.7454 10.7424 2.63055 10.8375C2.53127 10.9214 2.46059 11.0342 2.42835 11.1601C2.3961 11.286 2.40388 11.4188 2.45061 11.5401C2.49491 11.6635 2.57637 11.7702 2.68379 11.8454C2.7912 11.9206 2.91929 11.9606 3.05041 11.96H10.9249C11.2031 11.9601 11.4705 11.852 11.6704 11.6585C11.8703 11.465 11.9871 11.2013 11.996 10.9232V4.8481Z" fill="#F7E06F"/>
<path id="Vector_2" d="M10.6114 1.76942C11.3776 2.62934 11.8607 3.70419 11.9952 4.8481C11.9952 4.92537 11.9645 4.99947 11.9098 5.0541C11.8552 5.10874 11.7811 5.13943 11.7038 5.13943H0.521891C0.241699 5.13943 0.0163467 4.88666 0.163726 4.64846C0.255518 4.49937 0.38116 4.37402 0.530459 4.28258L7.13681 0.0925609C7.22282 0.0422695 7.31887 0.0115851 7.41811 0.00269817C7.51734 -0.00618879 7.61732 0.00694077 7.7109 0.0411497C8.83188 0.306044 9.84421 0.909435 10.6105 1.76942M5.99719 7.92421C5.99719 8.3219 6.15517 8.7033 6.43638 8.98451C6.71759 9.26572 7.09899 9.4237 7.49668 9.4237C7.89438 9.4237 8.27578 9.26572 8.55699 8.98451C8.8382 8.7033 8.99618 8.3219 8.99618 7.92421C8.99618 7.52652 8.8382 7.14512 8.55699 6.86391C8.27578 6.5827 7.89438 6.42471 7.49668 6.42471C7.09899 6.42471 6.71759 6.5827 6.43638 6.86391C6.15517 7.14512 5.99719 7.52652 5.99719 7.92421Z" fill="#C9A84C"/>
</g>
</svg>
