<svg width="32" height="32" viewBox="0 0 32 32" fill="none" xmlns="http://www.w3.org/2000/svg">
<rect width="32" height="32" rx="16" fill="#E05555" fill-opacity="0.1"/>
<path d="M15.9998 16.8101L14.0828 18.6911C13.5788 19.1951 13.2998 19.8521 13.2998 20.5541C13.2998 22.0121 14.5148 23.2001 15.9998 23.2001C17.4848 23.2001 18.6998 22.0121 18.6998 20.5541C18.6998 19.8521 18.4208 19.1861 17.9168 18.6911L15.9998 16.8101Z" fill="url(#paint0_linear_4769_65037)"/>
<path opacity="0.3" d="M19.5998 10.6L19.2038 11.095C18.1418 12.418 15.9998 11.671 15.9998 9.97V7C15.9998 7 8.7998 10.6 8.7998 16.9C8.7998 19.528 10.2038 21.823 12.3008 23.074C11.7968 22.363 11.4998 21.49 11.4998 20.554C11.4998 19.366 11.9678 18.25 12.8228 17.404L15.9998 14.29L19.1768 17.413C20.0318 18.25 20.4998 19.366 20.4998 20.563C20.4998 21.481 20.2208 22.327 19.7348 23.038C21.4358 22.003 22.6958 20.284 23.0738 18.268C23.6678 15.073 22.1108 12.058 19.5998 10.6Z" fill="url(#paint1_linear_4769_65037)"/>
<defs>
<linearGradient id="paint0_linear_4769_65037" x1="15.9998" y1="16.8101" x2="15.9998" y2="23.2001" gradientUnits="userSpaceOnUse">
<stop stop-color="#F1CB30"/>
<stop offset="1" stop-color="#E05555"/>
</linearGradient>
<linearGradient id="paint1_linear_4769_65037" x1="16" y1="7" x2="16" y2="23.074" gradientUnits="userSpaceOnUse">
<stop stop-color="#F1CB30"/>
<stop offset="1" stop-color="#E05555"/>
</linearGradient>
</defs>
</svg>
